<svg width="1920" height="691" viewBox="0 0 1920 691" fill="none" xmlns="http://www.w3.org/2000/svg">
<mask id="mask0_303_3815" style="mask-type:alpha" maskUnits="userSpaceOnUse" x="0" y="0" width="1920" height="691">
<rect width="1920" height="691" fill="#27AF58"/>
</mask>
<g mask="url(#mask0_303_3815)">
<rect x="-63" y="-1486.33" width="2080" height="3522.75" fill="black" fill-opacity="0.5"/>
<rect x="-63" y="-1486.33" width="2080" height="3522.75" fill="#27AF58"/>
<circle cx="1791.96" cy="207.666" r="88" transform="rotate(-27.8562 1791.96 207.666)" fill="url(#paint0_linear_303_3815)" fill-opacity="0.3"/>
<circle cx="1932.71" cy="296.681" r="171.5" transform="rotate(33.5144 1932.71 296.681)" fill="url(#paint1_linear_303_3815)" fill-opacity="0.3"/>
<circle cx="226.033" cy="197.033" r="106.814" transform="rotate(33.5144 226.033 197.033)" fill="url(#paint2_linear_303_3815)" fill-opacity="0.3"/>
<path fill-rule="evenodd" clip-rule="evenodd" d="M1510.02 235.322C1504.5 229.794 1495.54 229.794 1490.01 235.322C1484.48 240.849 1484.48 249.81 1490.01 255.337L1508.48 273.813L1490.01 292.289C1484.48 297.817 1484.48 306.778 1490.01 312.305C1495.54 317.832 1504.5 317.832 1510.02 312.305L1528.5 293.829L1546.98 312.305C1552.5 317.832 1561.47 317.832 1566.99 312.305C1572.52 306.778 1572.52 297.817 1566.99 292.289L1548.52 273.813L1566.99 255.337C1572.52 249.81 1572.52 240.849 1566.99 235.322C1561.47 229.794 1552.5 229.794 1546.98 235.322L1528.5 253.798L1510.02 235.322Z" fill="url(#paint3_linear_303_3815)" fill-opacity="0.3"/>
<path fill-rule="evenodd" clip-rule="evenodd" d="M1719.72 472.478C1719.08 470.102 1716.64 468.693 1714.26 469.329C1711.89 469.966 1710.48 472.408 1711.11 474.783L1713.24 482.725L1705.3 484.853C1702.93 485.489 1701.52 487.931 1702.15 490.307C1702.79 492.682 1705.23 494.092 1707.61 493.456L1715.55 491.328L1717.68 499.269C1718.31 501.645 1720.75 503.054 1723.13 502.418C1725.51 501.781 1726.92 499.339 1726.28 496.964L1724.15 489.023L1732.09 486.895C1734.47 486.258 1735.88 483.816 1735.24 481.441C1734.61 479.065 1732.16 477.655 1729.79 478.292L1721.85 480.42L1719.72 472.478Z" fill="url(#paint4_linear_303_3815)" fill-opacity="0.3"/>
<path fill-rule="evenodd" clip-rule="evenodd" d="M1522.28 612.641C1525.48 610.326 1526.2 605.856 1523.88 602.657C1521.56 599.459 1517.09 598.743 1513.9 601.058L1503.2 608.798L1495.47 598.107C1493.15 594.909 1488.68 594.193 1485.48 596.508C1482.28 598.824 1481.57 603.293 1483.88 606.492L1491.62 617.183L1480.93 624.923C1477.73 627.238 1477.02 631.708 1479.33 634.907C1481.65 638.105 1486.12 638.821 1489.32 636.506L1500.01 628.766L1507.75 639.458C1510.06 642.656 1514.53 643.372 1517.73 641.057C1520.93 638.741 1521.65 634.271 1519.33 631.073L1511.59 620.381L1522.28 612.641Z" fill="url(#paint5_linear_303_3815)" fill-opacity="0.3"/>
<path fill-rule="evenodd" clip-rule="evenodd" d="M494.976 98.7962C494.245 96.0648 491.437 94.4439 488.706 95.1757C485.974 95.9076 484.353 98.7151 485.085 101.446L487.532 110.577L478.402 113.023C475.67 113.755 474.049 116.563 474.781 119.294C475.513 122.026 478.321 123.646 481.052 122.915L490.182 120.468L492.629 129.598C493.36 132.33 496.168 133.951 498.899 133.219C501.631 132.487 503.252 129.679 502.52 126.948L500.073 117.818L509.204 115.371C511.935 114.639 513.556 111.832 512.824 109.101C512.092 106.369 509.285 104.748 506.553 105.48L497.423 107.927L494.976 98.7962Z" fill="url(#paint6_linear_303_3815)" fill-opacity="0.3"/>
<path fill-rule="evenodd" clip-rule="evenodd" d="M343.961 479.084C344.549 474.334 341.174 470.005 336.423 469.417C331.673 468.829 327.344 472.203 326.756 476.954L324.789 492.836L308.908 490.869C304.157 490.281 299.829 493.655 299.241 498.406C298.652 503.157 302.027 507.485 306.778 508.074L322.659 510.04L320.693 525.921C320.104 530.672 323.479 535 328.23 535.589C332.981 536.177 337.309 532.802 337.897 528.051L339.864 512.171L355.745 514.137C360.496 514.725 364.824 511.351 365.412 506.6C366 501.849 362.626 497.521 357.875 496.932L341.994 494.966L343.961 479.084Z" fill="url(#paint7_linear_303_3815)" fill-opacity="0.3"/>
<circle cx="24.4967" cy="316.497" r="208.167" transform="rotate(33.5144 24.4967 316.497)" fill="url(#paint8_linear_303_3815)" fill-opacity="0.3"/>
</g>
<path d="M0 0L1920 0V0C1920 39.7645 1887.76 72 1848 72L72 72C32.2355 72 0 39.7645 0 0V0Z" fill="white"/>
<path d="M960 102L918.431 72L1001.57 72L960 102Z" fill="white"/>
<defs>
<linearGradient id="paint0_linear_303_3815" x1="1791.96" y1="119.666" x2="1791.96" y2="295.666" gradientUnits="userSpaceOnUse">
<stop stop-color="#E5E5E5" stop-opacity="0.1"/>
<stop offset="1" stop-color="#E8FF4F"/>
</linearGradient>
<linearGradient id="paint1_linear_303_3815" x1="1932.71" y1="125.181" x2="1932.71" y2="468.181" gradientUnits="userSpaceOnUse">
<stop stop-color="#E5E5E5"/>
<stop offset="1" stop-color="#E8FF4F"/>
</linearGradient>
<linearGradient id="paint2_linear_303_3815" x1="226.033" y1="90.219" x2="226.033" y2="303.848" gradientUnits="userSpaceOnUse">
<stop stop-color="#E5E5E5" stop-opacity="0.1"/>
<stop offset="1" stop-color="#E8FF4F"/>
</linearGradient>
<linearGradient id="paint3_linear_303_3815" x1="1528.5" y1="231.176" x2="1528.5" y2="316.451" gradientUnits="userSpaceOnUse">
<stop stop-color="#E5E5E5"/>
<stop offset="1" stop-color="#E8FF4F"/>
</linearGradient>
<linearGradient id="paint4_linear_303_3815" x1="1718.7" y1="469.176" x2="1718.7" y2="502.571" gradientUnits="userSpaceOnUse">
<stop stop-color="#E5E5E5"/>
<stop offset="1" stop-color="#E8FF4F"/>
</linearGradient>
<linearGradient id="paint5_linear_303_3815" x1="1526.65" y1="609.219" x2="1476.56" y2="628.346" gradientUnits="userSpaceOnUse">
<stop stop-color="#E5E5E5"/>
<stop offset="1" stop-color="#E8FF4F"/>
</linearGradient>
<linearGradient id="paint6_linear_303_3815" x1="493.803" y1="95" x2="493.803" y2="133.394" gradientUnits="userSpaceOnUse">
<stop stop-color="#E5E5E5"/>
<stop offset="1" stop-color="#E8FF4F"/>
</linearGradient>
<linearGradient id="paint7_linear_303_3815" x1="344.532" y1="472.382" x2="320.121" y2="532.624" gradientUnits="userSpaceOnUse">
<stop stop-color="#E5E5E5"/>
<stop offset="1" stop-color="#E8FF4F"/>
</linearGradient>
<linearGradient id="paint8_linear_303_3815" x1="24.4967" y1="108.33" x2="24.4967" y2="524.663" gradientUnits="userSpaceOnUse">
<stop stop-color="#E5E5E5"/>
<stop offset="1" stop-color="#E8FF4F"/>
</linearGradient>
</defs>
</svg>
